<svg width="25" height="24" viewBox="0 0 25 24" fill="none" xmlns="http://www.w3.org/2000/svg">
<path d="M7.4252 16.64C7.67981 16.5657 7.95349 16.5957 8.18603 16.7232C8.41858 16.8507 8.59094 17.0654 8.6652 17.32C8.73946 17.5746 8.70954 17.8483 8.58201 18.0808C8.45449 18.3134 8.23981 18.4857 7.9852 18.56C7.4852 18.706 7.1252 18.86 6.8942 19C7.1322 19.143 7.5082 19.303 8.0302 19.452C9.1852 19.782 10.8382 20 12.7052 20C14.5722 20 16.2252 19.782 17.3802 19.452C17.9032 19.303 18.2782 19.143 18.5162 19C18.2862 18.86 17.9262 18.706 17.4262 18.56C17.1756 18.4825 16.9655 18.3096 16.8412 18.0786C16.7169 17.8476 16.6883 17.577 16.7616 17.3251C16.835 17.0733 17.0043 16.8603 17.2332 16.7321C17.4621 16.604 17.7321 16.5709 17.9852 16.64C18.6532 16.835 19.2652 17.085 19.7352 17.406C20.1702 17.705 20.7052 18.226 20.7052 19C20.7052 19.783 20.1572 20.308 19.7152 20.607C19.2372 20.929 18.6122 21.18 17.9292 21.375C16.5512 21.77 14.7052 22 12.7052 22C10.7052 22 8.8592 21.77 7.4812 21.375C6.7982 21.18 6.1732 20.929 5.6952 20.607C5.2532 20.307 4.7052 19.783 4.7052 19C4.7052 18.226 5.2402 17.705 5.6752 17.406C6.1452 17.085 6.7572 16.835 7.4252 16.64ZM12.7052 7.5C11.1652 7.5 10.2032 9.167 10.9732 10.5C11.3302 11.119 11.9902 11.5 12.7052 11.5C14.2452 11.5 15.2072 9.833 14.4372 8.5C14.2617 8.19597 14.0092 7.9435 13.7052 7.76796C13.4011 7.59243 13.0563 7.50001 12.7052 7.5Z" fill="#FF2D55"/>
<path opacity="0.3" d="M12.7052 2C14.6943 2 16.602 2.79018 18.0085 4.1967C19.415 5.60322 20.2052 7.51088 20.2052 9.5C20.2052 12.068 18.8052 14.156 17.3552 15.64C16.7788 16.2239 16.1594 16.7638 15.5022 17.255C14.9082 17.701 13.5502 18.537 13.5502 18.537C13.2926 18.6834 13.0015 18.7604 12.7052 18.7604C12.4089 18.7604 12.1178 18.6834 11.8602 18.537C11.1863 18.1462 10.5346 17.7182 9.9082 17.255C9.251 16.7638 8.6316 16.2239 8.0552 15.64C6.6052 14.156 5.2052 12.068 5.2052 9.5C5.2052 7.51088 5.99538 5.60322 7.4019 4.1967C8.80842 2.79018 10.7161 2 12.7052 2Z" fill="#FF2D55"/>
</svg>
