<svg width="29" height="28" viewBox="0 0 29 28" fill="none" xmlns="http://www.w3.org/2000/svg">
<path d="M24.9899 5.27734H3.716C2.87032 5.27734 2.18475 5.96291 2.18475 6.80859V21.1918C2.18475 22.0375 2.87032 22.7231 3.716 22.7231H24.9899C25.8356 22.7231 26.5211 22.0375 26.5211 21.1918V6.80859C26.5211 5.96291 25.8356 5.27734 24.9899 5.27734Z" fill="url(#paint0_linear_52_59)"/>
<path d="M24.9899 5.27734H3.716C2.87032 5.27734 2.18475 5.96291 2.18475 6.80859V21.1918C2.18475 22.0375 2.87032 22.7231 3.716 22.7231H24.9899C25.8356 22.7231 26.5211 22.0375 26.5211 21.1918V6.80859C26.5211 5.96291 25.8356 5.27734 24.9899 5.27734Z" fill="url(#paint1_linear_52_59)"/>
<path d="M14.3525 5.27724V22.7239H3.716C3.30989 22.7239 2.92041 22.5625 2.63325 22.2754C2.34608 21.9882 2.18475 21.5987 2.18475 21.1926V6.80762C2.18475 5.96237 2.86988 5.27637 3.716 5.27637L14.3525 5.27724Z" fill="url(#paint2_linear_52_59)"/>
<path d="M14.3525 5.27724V22.7239H3.716C3.30989 22.7239 2.92041 22.5625 2.63325 22.2754C2.34608 21.9882 2.18475 21.5987 2.18475 21.1926V6.80762C2.18475 5.96237 2.86988 5.27637 3.716 5.27637L14.3525 5.27724Z" fill="url(#paint3_radial_52_59)"/>
<path d="M14.3527 5.27724V22.7239H24.9892C25.3953 22.7239 25.7848 22.5625 26.0719 22.2754C26.3591 21.9882 26.5204 21.5987 26.5204 21.1926V6.80762C26.5204 6.4015 26.3591 6.01202 26.0719 5.72486C25.7848 5.43769 25.3953 5.27637 24.9892 5.27637L14.3527 5.27724Z" fill="url(#paint4_linear_52_59)"/>
<path d="M14.3527 5.27724V22.7239H24.9892C25.3953 22.7239 25.7848 22.5625 26.0719 22.2754C26.3591 21.9882 26.5204 21.5987 26.5204 21.1926V6.80762C26.5204 6.4015 26.3591 6.01202 26.0719 5.72486C25.7848 5.43769 25.3953 5.27637 24.9892 5.27637L14.3527 5.27724Z" fill="url(#paint5_linear_52_59)"/>
<path d="M14.3527 5.27724V22.7239H24.9892C25.3953 22.7239 25.7848 22.5625 26.0719 22.2754C26.3591 21.9882 26.5204 21.5987 26.5204 21.1926V6.80762C26.5204 6.4015 26.3591 6.01202 26.0719 5.72486C25.7848 5.43769 25.3953 5.27637 24.9892 5.27637L14.3527 5.27724Z" fill="url(#paint6_linear_52_59)"/>
<path d="M14.3527 5.27724V22.7239H24.9892C25.3953 22.7239 25.7848 22.5625 26.0719 22.2754C26.3591 21.9882 26.5204 21.5987 26.5204 21.1926V6.80762C26.5204 6.4015 26.3591 6.01202 26.0719 5.72486C25.7848 5.43769 25.3953 5.27637 24.9892 5.27637L14.3527 5.27724Z" fill="url(#paint7_linear_52_59)"/>
<g filter="url(#filter0_i_52_59)">
<path d="M2.1849 21.1919C2.18474 21.0788 2.21343 20.9675 2.26824 20.8686C2.32305 20.7697 2.40218 20.6864 2.49815 20.6266L14.1601 13.3379C14.2158 13.3031 14.28 13.2847 14.3456 13.2847C14.4112 13.2847 14.4755 13.3031 14.5311 13.3379L26.2325 20.6712C26.4119 20.7832 26.5213 20.9801 26.5213 21.1919C26.5213 21.598 26.3599 21.9875 26.0728 22.2746C25.7856 22.5618 25.3961 22.7231 24.99 22.7231H3.71527C3.30916 22.7231 2.91968 22.5618 2.63251 22.2746C2.34535 21.9875 2.18402 21.598 2.18402 21.1919" fill="url(#paint8_linear_52_59)"/>
</g>
<path d="M2.1849 21.1919C2.18474 21.0788 2.21343 20.9675 2.26824 20.8686C2.32305 20.7697 2.40218 20.6864 2.49815 20.6266L14.1601 13.3379C14.2158 13.3031 14.28 13.2847 14.3456 13.2847C14.4112 13.2847 14.4755 13.3031 14.5311 13.3379L26.2325 20.6712C26.4119 20.7832 26.5213 20.9801 26.5213 21.1919C26.5213 21.598 26.3599 21.9875 26.0728 22.2746C25.7856 22.5618 25.3961 22.7231 24.99 22.7231H3.71527C3.30916 22.7231 2.91968 22.5618 2.63251 22.2746C2.34535 21.9875 2.18402 21.598 2.18402 21.1919" fill="url(#paint9_linear_52_59)"/>
<path d="M2.1849 21.1919C2.18474 21.0788 2.21343 20.9675 2.26824 20.8686C2.32305 20.7697 2.40218 20.6864 2.49815 20.6266L14.1601 13.3379C14.2158 13.3031 14.28 13.2847 14.3456 13.2847C14.4112 13.2847 14.4755 13.3031 14.5311 13.3379L26.2325 20.6712C26.4119 20.7832 26.5213 20.9801 26.5213 21.1919C26.5213 21.598 26.3599 21.9875 26.0728 22.2746C25.7856 22.5618 25.3961 22.7231 24.99 22.7231H3.71527C3.30916 22.7231 2.91968 22.5618 2.63251 22.2746C2.34535 21.9875 2.18402 21.598 2.18402 21.1919" fill="url(#paint10_linear_52_59)"/>
<g filter="url(#filter1_ii_52_59)">
<path d="M2.1849 6.80859C2.18474 6.92167 2.21343 7.03292 2.26824 7.13183C2.32305 7.23074 2.40218 7.31403 2.49815 7.37384L14.1601 14.6626C14.2158 14.6974 14.28 14.7158 14.3456 14.7158C14.4112 14.7158 14.4755 14.6974 14.5311 14.6626L26.2325 7.32922C26.321 7.27416 26.3939 7.19745 26.4444 7.10635C26.4949 7.01525 26.5214 6.91277 26.5213 6.80859C26.5213 6.40248 26.3599 6.013 26.0728 5.72584C25.7856 5.43867 25.3961 5.27734 24.99 5.27734H3.71527C3.30916 5.27734 2.91968 5.43867 2.63251 5.72584C2.34535 6.013 2.18402 6.40248 2.18402 6.80859" fill="url(#paint11_linear_52_59)"/>
<path d="M2.1849 6.80859C2.18474 6.92167 2.21343 7.03292 2.26824 7.13183C2.32305 7.23074 2.40218 7.31403 2.49815 7.37384L14.1601 14.6626C14.2158 14.6974 14.28 14.7158 14.3456 14.7158C14.4112 14.7158 14.4755 14.6974 14.5311 14.6626L26.2325 7.32922C26.321 7.27416 26.3939 7.19745 26.4444 7.10635C26.4949 7.01525 26.5214 6.91277 26.5213 6.80859C26.5213 6.40248 26.3599 6.013 26.0728 5.72584C25.7856 5.43867 25.3961 5.27734 24.99 5.27734H3.71527C3.30916 5.27734 2.91968 5.43867 2.63251 5.72584C2.34535 6.013 2.18402 6.40248 2.18402 6.80859" fill="url(#paint12_linear_52_59)"/>
<path d="M2.1849 6.80859C2.18474 6.92167 2.21343 7.03292 2.26824 7.13183C2.32305 7.23074 2.40218 7.31403 2.49815 7.37384L14.1601 14.6626C14.2158 14.6974 14.28 14.7158 14.3456 14.7158C14.4112 14.7158 14.4755 14.6974 14.5311 14.6626L26.2325 7.32922C26.321 7.27416 26.3939 7.19745 26.4444 7.10635C26.4949 7.01525 26.5214 6.91277 26.5213 6.80859C26.5213 6.40248 26.3599 6.013 26.0728 5.72584C25.7856 5.43867 25.3961 5.27734 24.99 5.27734H3.71527C3.30916 5.27734 2.91968 5.43867 2.63251 5.72584C2.34535 6.013 2.18402 6.40248 2.18402 6.80859" fill="url(#paint13_linear_52_59)"/>
<path d="M2.1849 6.80859C2.18474 6.92167 2.21343 7.03292 2.26824 7.13183C2.32305 7.23074 2.40218 7.31403 2.49815 7.37384L14.1601 14.6626C14.2158 14.6974 14.28 14.7158 14.3456 14.7158C14.4112 14.7158 14.4755 14.6974 14.5311 14.6626L26.2325 7.32922C26.321 7.27416 26.3939 7.19745 26.4444 7.10635C26.4949 7.01525 26.5214 6.91277 26.5213 6.80859C26.5213 6.40248 26.3599 6.013 26.0728 5.72584C25.7856 5.43867 25.3961 5.27734 24.99 5.27734H3.71527C3.30916 5.27734 2.91968 5.43867 2.63251 5.72584C2.34535 6.013 2.18402 6.40248 2.18402 6.80859" fill="url(#paint14_radial_52_59)"/>
</g>
<g filter="url(#filter2_f_52_59)">
<path d="M13.7655 20.5381C15.39 20.5381 16.9479 19.8928 18.0965 18.7441C19.2452 17.5955 19.8905 16.0375 19.8905 14.4131C19.8905 12.7886 19.2452 11.2307 18.0965 10.0821C16.9479 8.9334 15.39 8.28809 13.7655 8.28809C12.1411 8.28809 10.5831 8.9334 9.43447 10.0821C8.28581 11.2307 7.6405 12.7886 7.6405 14.4131C7.6405 16.0375 8.28581 17.5955 9.43447 18.7441C10.5831 19.8928 12.1411 20.5381 13.7655 20.5381Z" fill="#C2A5D0"/>
</g>
<g filter="url(#filter3_iii_52_59)">
<path d="M14.3115 20.125C15.936 20.125 17.4939 19.4797 18.6426 18.331C19.7912 17.1824 20.4365 15.6245 20.4365 14C20.4365 12.3755 19.7912 10.8176 18.6426 9.66897C17.4939 8.52031 15.936 7.875 14.3115 7.875C12.6871 7.875 11.1292 8.52031 9.98049 9.66897C8.83183 10.8176 8.18652 12.3755 8.18652 14C8.18652 15.6245 8.83183 17.1824 9.98049 18.331C11.1292 19.4797 12.6871 20.125 14.3115 20.125Z" fill="url(#paint15_linear_52_59)"/>
</g>
<g filter="url(#filter4_dii_52_59)">
<path d="M14.3115 10.0626C13.2528 10.0451 12.2465 10.4476 11.494 11.2001C10.7328 11.9438 10.3215 12.9413 10.3215 14.0001C10.3215 16.1701 12.089 17.9376 14.259 17.9376C14.3681 17.9376 14.4727 17.8942 14.5498 17.8171C14.627 17.74 14.6703 17.6354 14.6703 17.5263C14.6703 17.4172 14.627 17.3126 14.5498 17.2355C14.4727 17.1584 14.3681 17.1151 14.259 17.1151C12.544 17.1151 11.144 15.7151 11.144 14.0001C11.144 13.1601 11.4765 12.3726 12.0715 11.7863C12.6665 11.2001 13.4628 10.8851 14.3028 10.8851C15.9915 10.9113 17.374 12.3288 17.374 14.0526V14.7613C17.374 14.9168 17.3123 15.0659 17.2023 15.1759C17.0924 15.2858 16.9433 15.3476 16.7878 15.3476C16.6323 15.3476 16.4832 15.2858 16.3732 15.1759C16.2633 15.0659 16.2015 14.9168 16.2015 14.7613V12.0663C16.2015 11.9572 16.1582 11.8526 16.0811 11.7755C16.004 11.6984 15.8994 11.6551 15.7903 11.6551C15.5628 11.6551 15.3615 11.8388 15.3615 12.0663V12.1451C14.9765 11.8388 14.4953 11.6463 13.9615 11.6463C12.7365 11.6463 11.739 12.6438 11.739 13.8688C11.739 15.0938 12.7365 16.0913 13.9615 16.0913C14.574 16.0913 15.134 15.8376 15.5365 15.4351C15.7815 15.8726 16.2453 16.1701 16.779 16.1701C17.5578 16.1701 18.1965 15.5313 18.1965 14.7526V14.0438C18.1965 11.8826 16.4553 10.0888 14.3115 10.0626ZM13.9703 15.2776C13.2003 15.2776 12.5703 14.6476 12.5703 13.8776C12.5703 13.1076 13.2003 12.4776 13.9703 12.4776C14.7403 12.4776 15.3703 13.1076 15.3703 13.8776C15.3703 14.6476 14.7403 15.2776 13.9703 15.2776Z" fill="#E6E0ED"/>
</g>
<defs>
<filter id="filter0_i_52_59" x="2.18402" y="12.9097" width="24.3372" height="9.81348" filterUnits="userSpaceOnUse" color-interpolation-filters="sRGB">
<feFlood flood-opacity="0" result="BackgroundImageFix"/>
<feBlend mode="normal" in="SourceGraphic" in2="BackgroundImageFix" result="shape"/>
<feColorMatrix in="SourceAlpha" type="matrix" values="0 0 0 0 0 0 0 0 0 0 0 0 0 0 0 0 0 0 127 0" result="hardAlpha"/>
<feOffset dy="-0.375"/>
<feGaussianBlur stdDeviation="0.375"/>
<feComposite in2="hardAlpha" operator="arithmetic" k2="-1" k3="1"/>
<feColorMatrix type="matrix" values="0 0 0 0 0.819608 0 0 0 0 0.654902 0 0 0 0 0.933333 0 0 0 1 0"/>
<feBlend mode="normal" in2="shape" result="effect1_innerShadow_52_59"/>
</filter>
<filter id="filter1_ii_52_59" x="2.18402" y="5.20234" width="24.3373" height="9.63848" filterUnits="userSpaceOnUse" color-interpolation-filters="sRGB">
<feFlood flood-opacity="0" result="BackgroundImageFix"/>
<feBlend mode="normal" in="SourceGraphic" in2="BackgroundImageFix" result="shape"/>
<feColorMatrix in="SourceAlpha" type="matrix" values="0 0 0 0 0 0 0 0 0 0 0 0 0 0 0 0 0 0 127 0" result="hardAlpha"/>
<feOffset dy="-0.075"/>
<feGaussianBlur stdDeviation="0.1125"/>
<feComposite in2="hardAlpha" operator="arithmetic" k2="-1" k3="1"/>
<feColorMatrix type="matrix" values="0 0 0 0 0.827451 0 0 0 0 0.686275 0 0 0 0 0.913725 0 0 0 1 0"/>
<feBlend mode="normal" in2="shape" result="effect1_innerShadow_52_59"/>
<feColorMatrix in="SourceAlpha" type="matrix" values="0 0 0 0 0 0 0 0 0 0 0 0 0 0 0 0 0 0 127 0" result="hardAlpha"/>
<feOffset dy="0.125"/>
<feGaussianBlur stdDeviation="0.15"/>
<feComposite in2="hardAlpha" operator="arithmetic" k2="-1" k3="1"/>
<feColorMatrix type="matrix" values="0 0 0 0 0.870588 0 0 0 0 0.858824 0 0 0 0 0.854902 0 0 0 1 0"/>
<feBlend mode="normal" in2="effect1_innerShadow_52_59" result="effect2_innerShadow_52_59"/>
</filter>
<filter id="filter2_f_52_59" x="6.8905" y="7.53809" width="13.75" height="13.75" filterUnits="userSpaceOnUse" color-interpolation-filters="sRGB">
<feFlood flood-opacity="0" result="BackgroundImageFix"/>
<feBlend mode="normal" in="SourceGraphic" in2="BackgroundImageFix" result="shape"/>
<feGaussianBlur stdDeviation="0.375" result="effect1_foregroundBlur_52_59"/>
</filter>
<filter id="filter3_iii_52_59" x="8.11152" y="7.75" width="12.45" height="12.5" filterUnits="userSpaceOnUse" color-interpolation-filters="sRGB">
<feFlood flood-opacity="0" result="BackgroundImageFix"/>
<feBlend mode="normal" in="SourceGraphic" in2="BackgroundImageFix" result="shape"/>
<feColorMatrix in="SourceAlpha" type="matrix" values="0 0 0 0 0 0 0 0 0 0 0 0 0 0 0 0 0 0 127 0" result="hardAlpha"/>
<feOffset dx="0.125"/>
<feGaussianBlur stdDeviation="0.0625"/>
<feComposite in2="hardAlpha" operator="arithmetic" k2="-1" k3="1"/>
<feColorMatrix type="matrix" values="0 0 0 0 0.192157 0 0 0 0 0.376471 0 0 0 0 0.721569 0 0 0 1 0"/>
<feBlend mode="normal" in2="shape" result="effect1_innerShadow_52_59"/>
<feColorMatrix in="SourceAlpha" type="matrix" values="0 0 0 0 0 0 0 0 0 0 0 0 0 0 0 0 0 0 127 0" result="hardAlpha"/>
<feOffset dy="-0.125"/>
<feGaussianBlur stdDeviation="0.0625"/>
<feComposite in2="hardAlpha" operator="arithmetic" k2="-1" k3="1"/>
<feColorMatrix type="matrix" values="0 0 0 0 0.32549 0 0 0 0 0.341176 0 0 0 0 0.819608 0 0 0 1 0"/>
<feBlend mode="normal" in2="effect1_innerShadow_52_59" result="effect2_innerShadow_52_59"/>
<feColorMatrix in="SourceAlpha" type="matrix" values="0 0 0 0 0 0 0 0 0 0 0 0 0 0 0 0 0 0 127 0" result="hardAlpha"/>
<feOffset dx="-0.075" dy="0.125"/>
<feGaussianBlur stdDeviation="0.0625"/>
<feComposite in2="hardAlpha" operator="arithmetic" k2="-1" k3="1"/>
<feColorMatrix type="matrix" values="0 0 0 0 0.317647 0 0 0 0 0.596078 0 0 0 0 0.882353 0 0 0 1 0"/>
<feBlend mode="normal" in2="effect2_innerShadow_52_59" result="effect3_innerShadow_52_59"/>
</filter>
<filter id="filter4_dii_52_59" x="10.1215" y="9.93701" width="8.125" height="8.20049" filterUnits="userSpaceOnUse" color-interpolation-filters="sRGB">
<feFlood flood-opacity="0" result="BackgroundImageFix"/>
<feColorMatrix in="SourceAlpha" type="matrix" values="0 0 0 0 0 0 0 0 0 0 0 0 0 0 0 0 0 0 127 0" result="hardAlpha"/>
<feOffset dx="-0.075" dy="0.075"/>
<feGaussianBlur stdDeviation="0.0625"/>
<feComposite in2="hardAlpha" operator="out"/>
<feColorMatrix type="matrix" values="0 0 0 0 0.152941 0 0 0 0 0.341176 0 0 0 0 0.768627 0 0 0 1 0"/>
<feBlend mode="normal" in2="BackgroundImageFix" result="effect1_dropShadow_52_59"/>
<feBlend mode="normal" in="SourceGraphic" in2="effect1_dropShadow_52_59" result="shape"/>
<feColorMatrix in="SourceAlpha" type="matrix" values="0 0 0 0 0 0 0 0 0 0 0 0 0 0 0 0 0 0 127 0" result="hardAlpha"/>
<feOffset dy="-0.125"/>
<feGaussianBlur stdDeviation="0.1"/>
<feComposite in2="hardAlpha" operator="arithmetic" k2="-1" k3="1"/>
<feColorMatrix type="matrix" values="0 0 0 0 0.803922 0 0 0 0 0.713726 0 0 0 0 0.921569 0 0 0 1 0"/>
<feBlend mode="normal" in2="shape" result="effect2_innerShadow_52_59"/>
<feColorMatrix in="SourceAlpha" type="matrix" values="0 0 0 0 0 0 0 0 0 0 0 0 0 0 0 0 0 0 127 0" result="hardAlpha"/>
<feOffset dx="-0.075" dy="0.075"/>
<feGaussianBlur stdDeviation="0.075"/>
<feComposite in2="hardAlpha" operator="arithmetic" k2="-1" k3="1"/>
<feColorMatrix type="matrix" values="0 0 0 0 0.917647 0 0 0 0 0.890196 0 0 0 0 0.952941 0 0 0 1 0"/>
<feBlend mode="normal" in2="effect2_innerShadow_52_59" result="effect3_innerShadow_52_59"/>
</filter>
<linearGradient id="paint0_linear_52_59" x1="3.93475" y1="15.0117" x2="26.5203" y2="14.8481" gradientUnits="userSpaceOnUse">
<stop stop-color="#DFD0E6"/>
<stop offset="1" stop-color="#EEE5F8"/>
</linearGradient>
<linearGradient id="paint1_linear_52_59" x1="2.18475" y1="14.9583" x2="4.843" y2="14.9583" gradientUnits="userSpaceOnUse">
<stop stop-color="#D6BABD"/>
<stop offset="1" stop-color="#DCC9DD" stop-opacity="0"/>
</linearGradient>
<linearGradient id="paint2_linear_52_59" x1="9.83488" y1="16.6015" x2="9.16813" y2="15.5629" gradientUnits="userSpaceOnUse">
<stop offset="0.114" stop-color="#DAC3DF"/>
<stop offset="1" stop-color="#DAC3DF" stop-opacity="0"/>
</linearGradient>
<radialGradient id="paint3_radial_52_59" cx="0" cy="0" r="1" gradientUnits="userSpaceOnUse" gradientTransform="translate(10.96 11.7077) rotate(123.69) scale(2.38458 16.7471)">
<stop offset="0.342" stop-color="#C8A6D7"/>
<stop offset="1" stop-color="#D1BBDD" stop-opacity="0"/>
</radialGradient>
<linearGradient id="paint4_linear_52_59" x1="18.8099" y1="16.871" x2="19.5362" y2="15.5629" gradientUnits="userSpaceOnUse">
<stop offset="0.114" stop-color="#F6EFFE"/>
<stop offset="1" stop-color="#F3EAFD" stop-opacity="0"/>
</linearGradient>
<linearGradient id="paint5_linear_52_59" x1="17.9892" y1="12.1959" x2="18.9193" y2="13.4532" gradientUnits="userSpaceOnUse">
<stop stop-color="#E3CDF7"/>
<stop offset="1" stop-color="#E9D9F8" stop-opacity="0"/>
</linearGradient>
<linearGradient id="paint6_linear_52_59" x1="26.6849" y1="17.1177" x2="23.4308" y2="17.1177" gradientUnits="userSpaceOnUse">
<stop stop-color="#F7F3FB"/>
<stop offset="1" stop-color="#F0E9F8" stop-opacity="0"/>
</linearGradient>
<linearGradient id="paint7_linear_52_59" x1="26.6849" y1="17.1177" x2="25.6122" y2="17.1177" gradientUnits="userSpaceOnUse">
<stop offset="0.199" stop-color="#EBE9ED"/>
<stop offset="1" stop-color="#EBE9ED" stop-opacity="0"/>
</linearGradient>
<linearGradient id="paint8_linear_52_59" x1="14.3526" y1="24.2544" x2="14.3526" y2="14.793" gradientUnits="userSpaceOnUse">
<stop stop-color="#DDC5F1"/>
<stop offset="1" stop-color="#E6DAF1"/>
</linearGradient>
<linearGradient id="paint9_linear_52_59" x1="6.9029" y1="17.593" x2="7.3019" y2="18.1924" gradientUnits="userSpaceOnUse">
<stop offset="0.073" stop-color="#DDC2C8"/>
<stop offset="1" stop-color="#DFCDDA" stop-opacity="0"/>
</linearGradient>
<linearGradient id="paint10_linear_52_59" x1="20.111" y1="16.7644" x2="19.8599" y2="17.1555" gradientUnits="userSpaceOnUse">
<stop offset="0.14" stop-color="#F8F3FD"/>
<stop offset="1" stop-color="#F1EAF9" stop-opacity="0"/>
</linearGradient>
<linearGradient id="paint11_linear_52_59" x1="14.3526" y1="5.27734" x2="14.3526" y2="14.7168" gradientUnits="userSpaceOnUse">
<stop stop-color="#E9E4E9"/>
<stop offset="1" stop-color="#E7DCF0"/>
</linearGradient>
<linearGradient id="paint12_linear_52_59" x1="8.9364" y1="11.2685" x2="12.0986" y2="5.59409" gradientUnits="userSpaceOnUse">
<stop stop-color="#E1D5E7"/>
<stop offset="1" stop-color="#E1D5E7" stop-opacity="0"/>
</linearGradient>
<linearGradient id="paint13_linear_52_59" x1="2.1849" y1="6.71059" x2="4.7504" y2="6.71059" gradientUnits="userSpaceOnUse">
<stop stop-color="#E1C1BC"/>
<stop offset="1" stop-color="#E9D1CD" stop-opacity="0"/>
</linearGradient>
<radialGradient id="paint14_radial_52_59" cx="0" cy="0" r="1" gradientUnits="userSpaceOnUse" gradientTransform="translate(24.3777 8.84983) rotate(-138.233) scale(5.36293 23.7632)">
<stop stop-color="#FBF9FE"/>
<stop offset="1" stop-color="#F0ECF1" stop-opacity="0"/>
</radialGradient>
<linearGradient id="paint15_linear_52_59" x1="19.9859" y1="12.4959" x2="9.70465" y2="16.2697" gradientUnits="userSpaceOnUse">
<stop stop-color="#347BD7"/>
<stop offset="1" stop-color="#3477CB"/>
</linearGradient>
</defs>
</svg>
