<svg width="36" height="36" viewBox="0 0 36 36" fill="none" xmlns="http://www.w3.org/2000/svg">
<g clip-path="url(#clip0_75_572)">
<g clip-path="url(#clip1_75_572)">
<g clip-path="url(#clip2_75_572)">
<mask id="mask0_75_572" style="mask-type:luminance" maskUnits="userSpaceOnUse" x="1" y="0" width="35" height="35">
<path d="M35.1796 0.536621H1.15186V34.5644H35.1796V0.536621Z" fill="white"/>
</mask>
<g mask="url(#mask0_75_572)">
<path d="M18.1658 24.8909V27.3457V24.8909Z" fill="#171717"/>
<path d="M18.1658 24.8909V27.3457" stroke="white" stroke-width="1.45833" stroke-linecap="round" stroke-linejoin="round"/>
<path d="M18.1658 12.7136V14.9983V12.7136Z" fill="#171717"/>
<path d="M18.1658 12.7136V14.9983" stroke="white" stroke-width="1.45833" stroke-linecap="round" stroke-linejoin="round"/>
<path d="M18.1658 33.3248C26.6727 33.3248 32.7491 30.3109 32.7491 23.6026C32.7491 16.3109 29.1033 11.4498 21.8116 7.80396L24.6797 4.10951C24.8253 3.86712 24.9043 3.5905 24.9087 3.30772C24.9131 3.02493 24.8426 2.74602 24.7044 2.49926C24.5662 2.2525 24.3652 2.04666 24.1218 1.9026C23.8785 1.75854 23.6013 1.68139 23.3186 1.67896H13.013C12.7302 1.68139 12.453 1.75854 12.2096 1.9026C11.9662 2.04666 11.7652 2.2525 11.6271 2.49926C11.4889 2.74602 11.4185 3.02493 11.4227 3.30772C11.4271 3.5905 11.5061 3.86712 11.6519 4.10951L14.5199 7.82826C7.22823 11.4984 3.5824 16.3595 3.5824 23.6512C3.5824 30.3109 9.65879 33.3248 18.1658 33.3248Z" fill="#171717" stroke="white" stroke-width="1.45833" stroke-linecap="round" stroke-linejoin="round"/>
<path d="M15.7356 23.7728C16.0321 24.1248 16.4053 24.4043 16.8267 24.5897C17.248 24.775 17.7062 24.8614 18.1661 24.8423C18.8691 24.8902 19.5631 24.6637 20.1025 24.2104C20.6419 23.7572 20.9846 23.1124 21.0584 22.4117C20.9846 21.711 20.6419 21.0662 20.1025 20.613C19.5631 20.1597 18.8691 19.9332 18.1661 19.9811C17.4631 20.0291 16.7691 19.8025 16.2297 19.3493C15.6903 18.896 15.3476 18.2513 15.2737 17.5506C15.3416 16.8475 15.6827 16.199 16.2234 15.7445C16.7643 15.2901 17.4618 15.0658 18.1661 15.12C18.6179 15.0924 19.0702 15.1652 19.4905 15.3333C19.9108 15.5014 20.2885 15.7606 20.5967 16.0923" fill="#171717"/>
<path d="M15.7356 23.7728C16.0321 24.1248 16.4053 24.4043 16.8267 24.5897C17.248 24.775 17.7062 24.8614 18.1661 24.8423C18.8691 24.8902 19.5631 24.6637 20.1025 24.2104C20.6419 23.7572 20.9846 23.1124 21.0584 22.4117C20.9846 21.711 20.6419 21.0662 20.1025 20.613C19.5631 20.1597 18.8691 19.9332 18.1661 19.9811C17.4631 20.0291 16.7691 19.8025 16.2297 19.3493C15.6903 18.896 15.3476 18.2513 15.2737 17.5506C15.3416 16.8475 15.6827 16.199 16.2234 15.7445C16.7643 15.2901 17.4618 15.0658 18.1661 15.12C18.6179 15.0924 19.0702 15.1652 19.4905 15.3333C19.9108 15.5014 20.2885 15.7606 20.5967 16.0923" stroke="white" stroke-width="1.45833" stroke-linecap="round" stroke-linejoin="round"/>
</g>
</g>
</g>
</g>
<defs>
<clipPath id="clip0_75_572">
<rect width="35" height="35" fill="white" transform="translate(0.660034 0.5)"/>
</clipPath>
<clipPath id="clip1_75_572">
<rect width="35" height="35" fill="white" transform="translate(0.660034 0.5)"/>
</clipPath>
<clipPath id="clip2_75_572">
<rect width="35" height="35" fill="white" transform="translate(0.660034 0.5)"/>
</clipPath>
</defs>
</svg>
